<svg height="512" viewBox="0 0 60 60" width="512" xmlns="http://www.w3.org/2000/svg"><g id="Icons"><rect fill="#3f5c6c" height="52" rx="8" width="58" x="1" y="7"/><path d="m30 7v26h-29v-18a8 8 0 0 1 8-8z" fill="#547580"/><path d="m59 33v18a8 8 0 0 1 -8 8h-21v-26z" fill="#f29c1f"/><g fill="#ecf0f1"><rect height="4" rx="2" width="12" x="39" y="40"/><rect height="4" rx="2" width="12" x="39" y="18"/><rect height="4" rx="2" width="12" x="39" y="48"/><path d="m20.37 47.5a2.043 2.043 0 0 1 .03 2.9 2.009 2.009 0 0 1 -1.42.6 2.111 2.111 0 0 1 -1.48-.63l-1.49-1.49-1.51 1.51a2.065 2.065 0 0 1 -2.91.03 2.022 2.022 0 0 1 -.59-1.43 2.1 2.1 0 0 1 .62-1.48l1.51-1.51-1.51-1.51a2.055 2.055 0 0 1 -.03-2.91 1.989 1.989 0 0 1 1.42-.58 2.112 2.112 0 0 1 1.49.61l1.51 1.51 1.49-1.49a2.043 2.043 0 0 1 2.9-.03 2 2 0 0 1 .59 1.42 2.1 2.1 0 0 1 -.62 1.48l-1.49 1.5z"/><path d="m22 20a2.015 2.015 0 0 1 -2 2h-2v2a2.006 2.006 0 0 1 -2 2 2.015 2.015 0 0 1 -2-2v-2h-2a2.006 2.006 0 0 1 -2-2 2.015 2.015 0 0 1 2-2h2v-2a2.006 2.006 0 0 1 2-2 2.015 2.015 0 0 1 2 2v2h2a2.006 2.006 0 0 1 2 2z"/></g></g></svg>